<svg xmlns="http://www.w3.org/2000/svg" xmlns:xlink="http://www.w3.org/1999/xlink" width="1400" height="980" xmlns:v="https://vecta.io/nano"><path fill="#fff" d="M0 0h1400v980H0z"/><path d="M554.2 101.2h339.9v31.5H554.2zm0 59.4h339.9v31.5H554.2z" fill="#f1f2f2"/><path fill="#ff9e81" d="M949.4,291.8c0-26.4-21.4-47.8-47.8-47.8H440.3c-26.4,0-47.8,21.4-47.8,47.8v272.3h557V291.8z"/><path d="M949.4 566.8h-557a2.69 2.69 0 0 1-2.7-2.7V291.8c0-27.9 22.7-50.5 50.5-50.5h461.3c27.9 0 50.5 22.7 50.5 50.5v272.3c.1 1.5-1.1 2.7-2.6 2.7zm-554.3-5.4h551.6V291.8c0-24.9-20.2-45.1-45.1-45.1H440.3c-24.9 0-45.1 20.2-45.1 45.1v269.6z"/><path fill="#fff" d="M392.4,564.1v27.6c0,26.4,21.4,47.8,47.8,47.8h461.3c26.4,0,47.8-21.4,47.8-47.8v-27.6H392.4z"/><path d="M901.6 642.2H440.3c-27.9 0-50.5-22.7-50.5-50.5v-27.6a2.69 2.69 0 0 1 2.7-2.7h557a2.69 2.69 0 0 1 2.7 2.7v27.6c-.1 27.9-22.7 50.5-50.6 50.5zm-506.5-75.4v24.9c0 24.9 20.2 45.1 45.1 45.1h461.3c24.9 0 45.1-20.3 45.1-45.1v-24.9H395.1z"/><path fill="#fff" d="M733.4 639.5h-62.5-62.4v63h124.9z"/><path d="M733.4 705.2H608.5a2.69 2.69 0 0 1-2.7-2.7v-63a2.69 2.69 0 0 1 2.7-2.7h124.9a2.69 2.69 0 0 1 2.7 2.7v63a2.69 2.69 0 0 1-2.7 2.7zm-122.2-5.4h119.5v-57.6H611.2v57.6z"/><path fill="#fff" d="M608.5 601.8h124.9"/><path d="M733.4 604.5H608.5a2.69 2.69 0 1 1 0-5.4h124.9a2.69 2.69 0 1 1 0 5.4z"/><path fill="#fff" d="M555.9 702.5h230v31.2h-230z"/><path d="M785.9 736.4h-230a2.69 2.69 0 0 1-2.7-2.7v-31.2a2.69 2.69 0 0 1 2.7-2.7h230a2.69 2.69 0 0 1 2.7 2.7v31.2a2.69 2.69 0 0 1-2.7 2.7zM558.6 731h224.6v-25.8H558.6V731z"/><path fill="#fff" d="M837.9 662.9c0 9.6 7.9 17.5 17.5 17.5h171.9c9.6 0 17.5-7.9 17.5-17.5v-36.8H837.9v36.8z"/><path d="M1027.3 683.1H855.4c-11.1 0-20.2-9.1-20.2-20.2v-36.8a2.69 2.69 0 0 1 2.7-2.7h206.9a2.69 2.69 0 0 1 2.7 2.7v36.8c0 11.2-9.1 20.2-20.2 20.2zm-186.7-54.3v34.1a14.77 14.77 0 0 0 14.8 14.8h171.9a14.77 14.77 0 0 0 14.8-14.8v-34.1H840.6z"/><path fill="#fff" d="M1044.8,349c0-9.6-7.9-17.5-17.5-17.5H855.4c-9.6,0-17.5,7.9-17.5,17.5v32.8h206.9V349z"/><path d="M1044.8 384.5H837.9a2.69 2.69 0 0 1-2.7-2.7V349c0-11.1 9.1-20.2 20.2-20.2h171.9c11.1 0 20.2 9.1 20.2 20.2v32.8a2.69 2.69 0 0 1-2.7 2.7zm-204.2-5.4h201.5V349a14.77 14.77 0 0 0-14.8-14.8H855.4a14.77 14.77 0 0 0-14.8 14.8v30.1z"/><path fill="#51d8ff" d="M837.9 381.8h206.9v244.4H837.9z"/><path d="M1044.8 628.8H837.9a2.69 2.69 0 0 1-2.7-2.7V381.8a2.69 2.69 0 0 1 2.7-2.7h206.9a2.69 2.69 0 0 1 2.7 2.7v244.4c0 1.4-1.2 2.6-2.7 2.6zm-204.2-5.3h201.5v-239H840.6v239z"/><path fill="#fff" d="M912.2 653.3h58.3"/><path d="M970.5 656h-58.3a2.69 2.69 0 1 1 0-5.4h58.3a2.69 2.69 0 1 1 0 5.4z"/><path fill="#fff" d="M960.1 356.6h31.7"/><path d="M991.8 359.3h-31.7a2.69 2.69 0 1 1 0-5.4h31.7a2.69 2.69 0 1 1 0 5.4z"/><path fill="#51d8ff" d="M925.1 416.5H725.5V404l-54.6 31.6 54.6 31.5v-12.5h199.6"/><path d="M725.5 469.8c-.5 0-.9-.1-1.3-.4l-54.6-31.5c-.8-.5-1.3-1.4-1.3-2.3s.5-1.9 1.3-2.3l54.6-31.5a2.62 2.62 0 0 1 2.7 0c.8.5 1.3 1.4 1.3 2.3v9.8h196.9a2.69 2.69 0 1 1 0 5.4H725.5a2.69 2.69 0 0 1-2.7-2.7v-7.8l-46.5 26.8 46.5 26.8v-7.8a2.69 2.69 0 0 1 2.7-2.7h199.6a2.69 2.69 0 1 1 0 5.4H728.2v9.8c0 1-.5 1.9-1.3 2.3-.4.3-.9.4-1.4.4z"/><path fill="#ff9e81" d="M681.1 534.1h199.7v12.5l54.5-31.5-54.5-31.5v12.5H681.1"/><path d="M880.8 549.3c-.5 0-.9-.1-1.3-.4-.8-.5-1.3-1.4-1.3-2.3v-9.8H681.1a2.69 2.69 0 1 1 0-5.4h199.6a2.69 2.69 0 0 1 2.7 2.7v7.8l46.5-26.8-46.5-26.8v7.8a2.69 2.69 0 0 1-2.7 2.7H681.1a2.69 2.69 0 1 1 0-5.4H878v-9.8c0-1 .5-1.9 1.3-2.3a2.62 2.62 0 0 1 2.7 0l54.6 31.5c.8.5 1.3 1.4 1.3 2.3 0 1-.5 1.9-1.3 2.3L882.1 549a3.08 3.08 0 0 1-1.3.3z"/><path d="M440.6 293.8h49.3v49.3h-49.3zm75.5 0h49.3v49.3h-49.3zm-75.5 76h49.3v49.3h-49.3zm75.5 0h49.3v49.3h-49.3zm75.5-76h49.3v49.3h-49.3zm75.4 0h49.3v49.3H667zm75.5 0h49.3v49.3h-49.3z" fill="#f09578"/><path d="M973.8 410.1h49.3v49.3h-49.3zm0 69.2h49.3v49.3h-49.3zm0 69.2h49.3v49.3h-49.3z" fill="#4bccf0"/><path d="M1230.6 178.1a2.69 2.69 0 0 1-2.7-2.7c0-31.2-25.4-56.6-56.6-56.6-15.1 0-29.3 5.9-40 16.6-1.1 1.1-2.8 1.1-3.8 0s-1.1-2.8 0-3.8c11.7-11.7 27.3-18.2 43.8-18.2 34.2 0 62 27.8 62 62a2.69 2.69 0 0 1-2.7 2.7zm-59.3 59.3c-34.2 0-62-27.8-62-62a2.7 2.7 0 1 1 5.4 0c0 31.2 25.4 56.6 56.6 56.6 15.1 0 29.3-5.9 40-16.6 1.1-1.1 2.8-1.1 3.8 0 1.1 1.1 1.1 2.8 0 3.8-11.7 11.7-27.2 18.2-43.8 18.2zm-50-64.3c-.7 0-1.4-.3-1.9-.8l-7.9-7.9-7.9 7.9c-1.1 1.1-2.8 1.1-3.8 0s-1.1-2.8 0-3.8l9.8-9.8c1-1 2.8-1 3.8 0l9.8 9.8c1.1 1.1 1.1 2.8 0 3.8-.5.5-1.2.8-1.9.8zm109.3 19.7c-.7 0-1.4-.3-1.9-.8l-9.8-9.8c-1.1-1.1-1.1-2.8 0-3.8 1.1-1.1 2.8-1.1 3.8 0l7.9 7.9 7.9-7.9c1.1-1.1 2.8-1.1 3.8 0s1.1 2.8 0 3.8l-9.8 9.8c-.5.6-1.2.8-1.9.8zm45.3 93.8h-232.7c-34.4 0-62.4-28-62.4-62.4s28-62.4 62.4-62.4h33.2c8.4-44.9 47.2-77.3 93.1-77.3 52.3 0 94.8 42.5 94.8 94.8 0 8.3-1.1 16.6-3.2 24.5h14.8c22.8 0 41.4 18.6 41.4 41.4s-18.5 41.4-41.4 41.4zm-232.7-119.5c-31.5 0-57 25.6-57 57 0 31.5 25.6 57 57 57h232.7c19.9 0 36-16.2 36-36 0-19.9-16.2-36-36-36h-18.3c-.9 0-1.7-.4-2.2-1.1s-.7-1.6-.4-2.4c2.6-8.5 4-17.4 4-26.4 0-49.3-40.1-89.4-89.4-89.4-44 0-81.1 31.6-88.2 75.1-.2 1.3-1.3 2.3-2.7 2.3h-35.5zM349.7 882.3h-95.3a2.69 2.69 0 0 1-2.7-2.7v-200a2.69 2.69 0 0 1 2.7-2.7h95.3a2.69 2.69 0 0 1 2.7 2.7v200a2.69 2.69 0 0 1-2.7 2.7zM257 877h90V682.4h-90V877zm222.8 5.3h-95.3a2.69 2.69 0 0 1-2.7-2.7v-200a2.69 2.69 0 0 1 2.7-2.7h95.3a2.69 2.69 0 0 1 2.7 2.7v200c0 1.5-1.3 2.7-2.7 2.7zm-92.7-5.3h90V682.4h-90V877z"/><use xlink:href="#B"/><use xlink:href="#B" y="33.7"/><use xlink:href="#B" y="67.4"/><use xlink:href="#B" y="101.1"/><use xlink:href="#B" y="134.8"/><use xlink:href="#B" x="130"/><use xlink:href="#B" x="130" y="33.7"/><use xlink:href="#B" x="130" y="67.4"/><use xlink:href="#B" x="130" y="101.1"/><use xlink:href="#B" x="130" y="134.8"/><path d="M254.3 833.8h-39.2a2.69 2.69 0 0 1-2.7-2.7V601.8a2.7 2.7 0 1 1 5.4 0v226.6h36.6a2.69 2.69 0 0 1 2.7 2.7c0 1.5-1.3 2.7-2.8 2.7zm371.9 0H479.8a2.7 2.7 0 1 1 0-5.4h146.5a2.69 2.69 0 0 1 2.7 2.7c0 1.5-1.3 2.7-2.8 2.7zm159.7 71.5H626.2c-.9 0-1.8-.5-2.3-1.2-.5-.8-.6-1.7-.2-2.6l36.4-82.9c.4-1 1.4-1.6 2.5-1.6h159.7c.9 0 1.8.5 2.3 1.2.5.8.6 1.7.2 2.6l-36.4 82.9a2.8 2.8 0 0 1-2.5 1.6zm-155.5-5.4h153.8l34.1-77.5H664.4l-34 77.5z"/><path d="M626.2 905.3c-.2 0-.4 0-.6-.1-1.2-.3-2.1-1.4-2.1-2.6V768.4a2.69 2.69 0 0 1 2.7-2.7h57.3c.8 0 1.6.4 2.1 1l25.5 32.7h74.8a2.69 2.69 0 0 1 2.7 2.7v17.5a2.69 2.69 0 0 1-2.7 2.7H664.4l-35.7 81.3c-.4 1-1.4 1.7-2.5 1.7zm2.7-134.2v118.6l31.3-71.2c.4-1 1.4-1.6 2.5-1.6h120.6v-12.1h-73.4c-.8 0-1.6-.4-2.1-1l-25.5-32.7h-53.4zM332.4 604.5H77.2a2.69 2.69 0 0 1-2.7-2.7V394.4a2.69 2.69 0 0 1 2.7-2.7h255.2a2.69 2.69 0 0 1 2.7 2.7v207.5c0 1.4-1.2 2.6-2.7 2.6zm-252.5-5.4h249.8v-202H79.9v202zm27.8-50.6c-.3 0-.6 0-.8-.1-1.1-.4-1.9-1.4-1.9-2.6V419a2.69 2.69 0 0 1 2.7-2.7h194.1a2.69 2.69 0 0 1 2.7 2.7v126.7c0 1.2-.7 2.2-1.9 2.6-1.1.4-2.3 0-3-1L232.8 457l-58 78.5c-.5.7-1.3 1.1-2.2 1.1h0c-.9 0-1.7-.4-2.2-1.1l-25.9-35.1-34.7 46.9c-.4.8-1.3 1.2-2.1 1.2zm2.7-126.8v115.9l32-43.3c.5-.7 1.3-1.1 2.2-1.1h0c.9 0 1.7.4 2.2 1.1l25.9 35.1 58-78.5c.5-.7 1.3-1.1 2.2-1.1h0c.9 0 1.7.4 2.2 1.1l64.1 86.6V421.7H110.4z"/><path d="M163.3 549.3h-55.6a2.69 2.69 0 0 1-2.7-2.7v-.9c0-.6.2-1.1.5-1.6l36.9-49.8c.5-.7 1.3-1.1 2.2-1.1h0c.9 0 1.7.4 2.2 1.1l28.1 38c.7.9.7 2.2 0 3.2l-9.4 12.7c-.5.7-1.3 1.1-2.2 1.1zm-50.9-5.4H162l7.4-10-24.8-33.5-32.2 43.5z"/><path d="M301.8 549.3H163.3c-1 0-1.9-.6-2.4-1.5s-.4-2 .2-2.8l69.6-94.1c.5-.7 1.3-1.1 2.2-1.1h0c.9 0 1.7.4 2.2 1.1l68.9 93.2c.3.5.5 1 .5 1.6v.9a2.69 2.69 0 0 1-2.7 2.7zm-133.1-5.4h128.4l-64.2-86.8-64.2 86.8zm4-58.8c-12.3 0-22.3-10-22.3-22.3s10-22.3 22.3-22.3 22.3 10 22.3 22.3-10 22.3-22.3 22.3zm0-39.3c-9.3 0-16.9 7.6-16.9 16.9s7.6 16.9 16.9 16.9 16.9-7.6 16.9-16.9-7.6-16.9-16.9-16.9zm-26.8 132.6h-38.2a2.7 2.7 0 1 1 0-5.4h38.2a2.7 2.7 0 1 1 0 5.4zm35.5 0h-18.1a2.7 2.7 0 1 1 0-5.4h18.1a2.7 2.7 0 1 1 0 5.4z"/><use xlink:href="#C"/><path d="M171.3 798h-.1-62c-1 0-1.9-.5-2.3-1.3a2.62 2.62 0 0 1 0-2.7l31-53.7c1-1.7 3.7-1.7 4.7 0l30.7 53.1c.5.5.8 1.2.8 1.9-.1 1.5-1.3 2.7-2.8 2.7zm-57.4-5.4h52.7L140.2 747l-26.3 45.6z"/><use xlink:href="#C" y="167.2"/><path d="M1208.1 395.3c-43.8 0-109.1-6.2-109.1-23.1s65.2-23.1 109.1-23.1 109.1 6.1 109.1 23.1-65.2 23.1-109.1 23.1zm0-40.8c-63.3 0-103.7 10.5-103.7 17.7s40.4 17.7 103.7 17.7 103.7-10.5 103.7-17.7-40.4-17.7-103.7-17.7zm0 104.1c-43.8 0-109.1-6.2-109.1-23.1 0-5.5 6.4-10 19.6-13.8.5-.1 1-.1 1.5 0 19.6 5.7 52.4 9 87.9 9s68.4-3.4 87.9-9c.5-.1 1-.1 1.5 0 13.2 3.8 19.6 8.3 19.6 13.8.2 17-65 23.1-108.9 23.1zm-88.6-31.5c-14.6 4.3-15 8-15 8.5 0 7.2 40.4 17.7 103.7 17.7s103.7-10.5 103.7-17.7c0-.4-.4-4.1-15-8.5-20.1 5.7-53.2 9-88.7 9-35.6 0-68.6-3.4-88.7-9z"/><path d="M1208.1 436.1c-36 0-69.4-3.5-89.4-9.2-13.2-3.8-19.6-8.3-19.6-13.8v-40.8a2.7 2.7 0 1 1 5.4 0c0 7.2 40.4 17.7 103.7 17.7s103.7-10.5 103.7-17.7a2.7 2.7 0 1 1 5.4 0V413c0 5.5-6.4 10-19.6 13.8-20.2 5.8-53.6 9.3-89.6 9.3zm-103.6-56V413c0 .4.4 4.2 15.7 8.7 19.6 5.7 52.4 9 87.9 9s68.4-3.4 87.9-9c15.3-4.4 15.7-8.2 15.7-8.7v-32.9c-16.5 11-67.4 15.2-103.7 15.2s-87-4.2-103.5-15.2zm103.6 141.8c-43.8 0-109.1-6.2-109.1-23.1 0-5.5 6.4-10 19.6-13.8.5-.1 1-.1 1.5 0 19.5 5.7 52.4 9 87.9 9s68.4-3.4 87.9-9c.5-.1 1-.1 1.5 0 13.2 3.8 19.6 8.3 19.6 13.8.2 16.9-65 23.1-108.9 23.1zm-88.6-31.5c-14.6 4.3-15 8-15 8.5 0 7.2 40.4 17.7 103.7 17.7s103.7-10.5 103.7-17.7c0-.4-.4-4.1-15-8.5-20.1 5.7-53.1 9-88.7 9s-68.7-3.4-88.7-9z"/><path d="M1208.1 499.4c-36 0-69.4-3.5-89.4-9.2-13.2-3.8-19.6-8.3-19.6-13.8v-40.8a2.7 2.7 0 1 1 5.4 0c0 7.2 40.4 17.7 103.7 17.7s103.7-10.5 103.7-17.7a2.7 2.7 0 1 1 5.4 0v40.8c0 5.5-6.4 10-19.6 13.8-20.2 5.7-53.6 9.2-89.6 9.2zm-103.6-56.1v32.9c0 .4.4 4.3 15.7 8.7 19.5 5.7 52.4 9 87.9 9s68.4-3.4 87.9-9c15.3-4.4 15.7-8.2 15.7-8.7v-32.9c-16.5 11-67.4 15.3-103.7 15.3s-87-4.2-103.5-15.3zm103.6 119.4c-43.8 0-109.1-6.2-109.1-23.1v-40.8a2.7 2.7 0 1 1 5.4 0c0 7.2 40.4 17.7 103.7 17.7s103.7-10.5 103.7-17.7a2.7 2.7 0 1 1 5.4 0v40.8c0 16.9-65.2 23.1-109.1 23.1zm-103.6-56.1v32.9c0 7.2 40.4 17.7 103.7 17.7s103.7-10.5 103.7-17.7v-32.9c-16.5 11-67.4 15.3-103.7 15.3s-87.2-4.2-103.7-15.3zM952.7 833.8H817.3a2.7 2.7 0 1 1 0-5.4h135.4a2.7 2.7 0 1 1 0 5.4zm268.2 14.3H1182a2.69 2.69 0 0 1-2.7-2.7v-64a2.69 2.69 0 0 1 2.7-2.7h38.9a2.69 2.69 0 0 1 2.7 2.7v64a2.69 2.69 0 0 1-2.7 2.7zm-36.1-5.4h33.5v-58.6h-33.5v58.6z"/><path d="M1259.8 870.5c-.5 0-.9-.1-1.3-.4l-38.9-22.4c-.8-.5-1.3-1.4-1.3-2.3v-64c0-1 .5-1.9 1.3-2.3l38.9-22.4a2.62 2.62 0 0 1 2.7 0c.8.5 1.3 1.4 1.3 2.3v108.9c0 1-.5 1.9-1.3 2.3-.5.2-.9.3-1.4.3zm-36.2-26.7l33.5 19.3v-99.6l-33.5 19.3v61zm-60.7 42.5h-191c-12 0-21.8-9.8-21.8-21.9V762.3c0-12 9.8-21.9 21.8-21.9H1163c12 0 21.8 9.8 21.8 21.9v102.2c0 12-9.8 21.8-21.9 21.8zm-191-140.5a16.52 16.52 0 0 0-16.5 16.5v102.2a16.52 16.52 0 0 0 16.5 16.5H1163a16.52 16.52 0 0 0 16.5-16.5V762.3a16.52 16.52 0 0 0-16.5-16.5H971.9zm64.1 117.8h-57.7a2.69 2.69 0 0 1-2.7-2.7v-19.2a2.69 2.69 0 0 1 2.7-2.7h57.7a2.69 2.69 0 0 1 2.7 2.7v19.2a2.69 2.69 0 0 1-2.7 2.7zm-55-5.4h52.3v-13.8H981v13.8zm182.7-16.7h-96.3a2.69 2.69 0 0 1-2.7-2.7v-51a2.69 2.69 0 0 1 2.7-2.7h96.3a2.69 2.69 0 0 1 2.7 2.7v51a2.69 2.69 0 0 1-2.7 2.7zm-93.6-5.3h91v-45.6h-91v45.6z"/><path d="M1208.1 354.5a2.69 2.69 0 0 1-2.7-2.7v-68a2.7 2.7 0 1 1 5.4 0v68a2.69 2.69 0 0 1-2.7 2.7zm-78.7 391.3a2.69 2.69 0 0 1-2.7-2.7v-89.9a2.69 2.69 0 0 1 2.7-2.7h76.1V560a2.7 2.7 0 1 1 5.4 0v93.3a2.69 2.69 0 0 1-2.7 2.7H1132v87.2a2.65 2.65 0 0 1-2.6 2.6zM228.3 334h0-47.1c-.7 0-1.4-.3-1.9-.8s-.8-1.2-.8-1.9v-19.2c-10.9-2.7-21.3-7-31-12.8L134 312.9c-1 1-2.8 1-3.8 0l-33.3-33.3c-1.1-1.1-1.1-2.8 0-3.8l13.6-13.6c-5.9-9.6-10.2-20-12.8-31H78.5a2.69 2.69 0 0 1-2.7-2.7v-47.1a2.69 2.69 0 0 1 2.7-2.7h19.2c2.7-10.9 7-21.3 12.8-31l-13.6-13.6c-1.1-1.1-1.1-2.8 0-3.8L130.2 97c1-1 2.8-1 3.8 0l13.6 13.6c9.6-5.9 20-10.2 31-12.8V78.7a2.69 2.69 0 0 1 2.7-2.7h47.1a2.69 2.69 0 0 1 2.7 2.7v19.2c10.9 2.7 21.3 7 31 12.8l13.6-13.6c1-1 2.8-1 3.8 0l33.3 33.3c1.1 1.1 1.1 2.8 0 3.8l-13.6 13.6c5.9 9.6 10.2 20 12.8 31h19.2c.7 0 1.4.3 1.9.8s.8 1.2.8 1.9v47.1c0 .7-.3 1.4-.8 1.9s-1.2.8-1.9.8h0H312c-2.7 10.9-7 21.3-12.8 31l13.6 13.6c1.1 1.1 1.1 2.8 0 3.8L279.5 313c-.5.5-1.2.8-1.9.8h0c-.7 0-1.4-.3-1.9-.8L262 299.3c-9.6 5.9-20 10.2-31 12.8v19.2c0 .7-.3 1.4-.8 1.9s-1.2.8-1.9.8zm-44.4-5.4h41.7V310c0-1.3.9-2.4 2.1-2.6 11.8-2.6 23-7.3 33.2-13.8 1.1-.7 2.5-.5 3.4.4l13.2 13.2 29.5-29.5-13.2-13.2c-.9-.9-1-2.3-.4-3.3 6.5-10.2 11.1-21.4 13.8-33.2.3-1.2 1.4-2.1 2.6-2.1h0 18.6v-41.7h-18.6c-1.3 0-2.4-.9-2.6-2.1-2.6-11.8-7.3-23-13.8-33.2-.7-1.1-.5-2.5.4-3.4l13.2-13.2-29.5-29.5-13.2 13.2c-.9.9-2.3 1-3.3.4-10.2-6.5-21.4-11.1-33.2-13.8-1.2-.3-2.1-1.4-2.1-2.6V81.4H184V100c0 1.3-.9 2.4-2.1 2.6-11.8 2.6-23 7.3-33.2 13.8-1.1.7-2.5.5-3.4-.4l-13.2-13.2-29.5 29.5 13.2 13.2c.9.9 1 2.3.4 3.3-6.5 10.2-11.1 21.4-13.8 33.2-.3 1.2-1.4 2.1-2.6 2.1H81.2v41.7h18.6c1.3 0 2.4.9 2.6 2.1 2.6 11.8 7.3 23 13.8 33.2.7 1.1.5 2.5-.4 3.3l-13.2 13.2 29.5 29.5 13.2-13.2c.9-.9 2.3-1 3.3-.4 10.2 6.5 21.4 11.1 33.2 13.8 1.2.3 2.1 1.4 2.1 2.6v18.7zm20.9-54.4c-38.2 0-69.2-31-69.2-69.2s31.1-69.2 69.2-69.2c38.2 0 69.2 31 69.2 69.2s-31.1 69.2-69.2 69.2zm0-133c-35.2 0-63.8 28.6-63.8 63.8s28.6 63.8 63.8 63.8 63.8-28.6 63.8-63.8-28.6-63.8-63.8-63.8zm296.4 59.7h-98c-7.4 0-13.5-6-13.5-13.5v-98c0-7.4 6-13.5 13.5-13.5h98c7.4 0 13.5 6 13.5 13.5v98c-.1 7.5-6.1 13.5-13.5 13.5zm-98-119.5c-4.5 0-8.1 3.6-8.1 8.1v98c0 4.5 3.6 8.1 8.1 8.1h98c4.5 0 8.1-3.6 8.1-8.1v-98c0-4.5-3.6-8.1-8.1-8.1h-98zm513.1 22.5H540.7a2.7 2.7 0 1 1 0-5.4h375.6a2.7 2.7 0 1 1 0 5.4zm0 59.4H540.7a2.7 2.7 0 1 1 0-5.4h375.6a2.7 2.7 0 1 1 0 5.4zM492.6 158h-21.7c-.8 0-1.6-.4-2.1-1s-.7-1.4-.6-2.2c1-5.2 1.5-10.7 1.5-16.3s-.5-11.1-1.5-16.3c-.2-.8.1-1.6.6-2.2s1.3-1 2.1-1h21.7c1.1 0 2.1.7 2.5 1.7 2.4 5.7 3.6 11.7 3.6 17.9s-1.2 12.2-3.6 17.9c-.5.9-1.5 1.5-2.5 1.5zm-18.6-5.4h16.7c1.7-4.5 2.5-9.3 2.5-14.2s-.8-9.6-2.5-14.2H474c.7 4.6 1.1 9.3 1.1 14.2s-.4 9.7-1.1 14.2z"/><path d="M433.6 158h-21.7c-1.1 0-2.1-.7-2.5-1.7-2.4-5.7-3.6-11.7-3.6-17.9s1.2-12.2 3.6-17.9c.4-1 1.4-1.7 2.5-1.7h21.7c.8 0 1.6.4 2.1 1s.7 1.4.6 2.2c-1 5.2-1.5 10.7-1.5 16.3 0 5.7.5 11.2 1.5 16.3.2.8-.1 1.6-.6 2.2-.6.9-1.3 1.2-2.1 1.2zm-19.9-5.4h16.7c-.7-4.6-1.1-9.3-1.1-14.2 0-4.8.4-9.6 1.1-14.2h-16.7c-1.7 4.5-2.5 9.3-2.5 14.2 0 5 .8 9.7 2.5 14.2zm78.9-28.3h-21.7c-1.3 0-2.4-.9-2.6-2.2-2.9-14.8-9.3-24.7-16-24.7a2.7 2.7 0 1 1 0-5.4c18.8 0 35.6 11.2 42.8 28.5.3.8.3 1.8-.2 2.5-.6.9-1.4 1.3-2.3 1.3zm-19.6-5.4h15.3c-5.1-9.4-13.5-16.3-23.5-19.5 3.6 4.7 6.4 11.3 8.2 19.5z"/><path d="M433.6 124.3h-21.7c-.9 0-1.7-.5-2.2-1.2-.5-.8-.6-1.7-.2-2.5 7.2-17.3 24.1-28.5 42.8-28.5a2.7 2.7 0 1 1 0 5.4c-6.7 0-13.1 9.9-16 24.7-.3 1.2-1.5 2.1-2.7 2.1zm-17.5-5.4h15.3c1.8-8.2 4.7-14.9 8.2-19.5-10 3.2-18.4 10.1-23.5 19.5zm36.1 66a2.7 2.7 0 1 1 0-5.4c6.7 0 13.1-9.9 16-24.7.2-1.3 1.4-2.2 2.6-2.2h21.7c.9 0 1.7.5 2.2 1.2.5.8.6 1.7.2 2.5-7.1 17.4-23.9 28.6-42.7 28.6zM473 158c-1.8 8.2-4.7 14.9-8.2 19.5 9.9-3.2 18.4-10.1 23.5-19.5H473z"/><path d="M452.2 184.9c-18.8 0-35.6-11.2-42.8-28.5-.3-.8-.3-1.8.2-2.5s1.3-1.2 2.2-1.2h21.7c1.3 0 2.4.9 2.6 2.2 2.8 14.8 9.3 24.7 16 24.7a2.69 2.69 0 0 1 2.7 2.7c.1 1.4-1.1 2.6-2.6 2.6zM416.1 158c5.1 9.4 13.5 16.3 23.4 19.5-3.5-4.6-6.4-11.3-8.2-19.5h-15.2zm54.7-33.7h-37.3c-.8 0-1.6-.4-2.1-1s-.7-1.4-.6-2.2c3.5-17.9 11.6-29.1 21.3-29.1s17.8 11.1 21.3 29.1c.2.8-.1 1.6-.6 2.2-.4.7-1.2 1-2 1zm-33.9-5.4h30.6c-3.1-13-9.1-21.5-15.3-21.5s-12.2 8.5-15.3 21.5z"/><path d="M452.2 184.9c-9.7 0-17.8-11.1-21.3-29.1-.2-.8.1-1.6.6-2.2s1.3-1 2.1-1h37.3c.8 0 1.6.4 2.1 1s.7 1.4.6 2.2c-3.6 18-11.7 29.1-21.4 29.1zM436.9 158c3.1 13 9.1 21.5 15.3 21.5h0c6.2 0 12.2-8.5 15.3-21.5h-30.6z"/><path d="M470.8 158h-37.3c-1.3 0-2.4-.9-2.6-2.2-1.1-5.5-1.6-11.4-1.6-17.4s.5-11.8 1.6-17.4c.2-1.3 1.4-2.2 2.6-2.2h37.3c1.3 0 2.4.9 2.6 2.2 1.1 5.5 1.6 11.4 1.6 17.4s-.5 11.8-1.6 17.4c-.2 1.3-1.3 2.2-2.6 2.2zm-35-5.4h32.8c.7-4.5 1.1-9.3 1.1-14.2s-.4-9.6-1.1-14.2h-32.8c-.7 4.5-1.1 9.3-1.1 14.2s.4 9.7 1.1 14.2z"/><defs ><path id="B" d="M332.4 715h-60.7a2.69 2.69 0 1 1 0-5.4h60.7a2.69 2.69 0 1 1 0 5.4z"/><path id="C" d="M171.3 714.4h-.1-62c-1 0-1.9-.5-2.3-1.3a2.62 2.62 0 0 1 0-2.7l31-53.7c1-1.7 3.7-1.7 4.7 0l30.7 53.1c.5.5.8 1.2.8 1.9-.1 1.5-1.3 2.7-2.8 2.7zm-57.4-5.4h52.7l-26.3-45.6-26.4 45.6z"/></defs></svg>