<svg xmlns="http://www.w3.org/2000/svg" xmlns:xlink="http://www.w3.org/1999/xlink" width="335.986" height="235.19" xmlns:v="https://vecta.io/nano"><style><![CDATA[.B{stroke-miterlimit:10}.C{fill:#fff}.D{stroke:#34525c}.E{stroke-width:2}.F{fill-rule:evenodd}.G{fill:#84dbff}]]></style><path fill="#eaecf0" d="M.244 0H336.23v235.19H.244z"/><path d="M299.001 183.18h12.023v31.503h-12.023zm-16.73-6.797h12.062v38.85h-12.062zm-16.71 16.965h12.062v21.885h-12.062z" class="B C D E F"/><path d="M302.312 102.503c-.596 1.815-1.543 3.451-2.807 4.825l9.579 13.384c4.837-4.174 8.315-9.885 9.634-16.394l-16.406-1.815zm-9.785-16.965c5.582 1.152 9.813 5.861 10.364 11.64l16.392 1.811c0-.187.026-.372.026-.556 0-15.366-11.768-27.97-26.782-29.324v16.429zm-12.385 4.063c1.836-2.019 4.256-3.491 7.031-4.062v-16.43c-8.738.791-16.354 5.396-21.214 12.133l14.183 8.359zm15.025 20.86c-1.631.723-3.42 1.137-5.314 1.137a13.17 13.17 0 0 1-13.174-13.165c0-1.483.299-2.884.752-4.214l-14.187-8.358c-1.81 3.812-2.851 8.066-2.851 12.572 0 16.272 13.187 29.455 29.459 29.455a29.26 29.26 0 0 0 14.872-4.059l-9.557-13.368zm-253.14-5.573H24.899a5.5 5.5 0 0 0-5.479 5.479v4.835 4.837a5.5 5.5 0 0 0 5.479 5.478h17.128c3.015 0 5.48-2.465 5.48-5.478v-4.837-4.835c.001-3.013-2.465-5.479-5.48-5.479z" class="B C D E"/><path d="M38.272 115.658l-7.535 5.479c-.158.116-.363.172-.574.182-.017.001-.033.01-.051.01-.426 0-.768-.343-.768-.765v-10.721c0-.423.342-.764.762-.765h-.001.007l.008.003c.229.002.447.063.617.185l7.535 5.479c.347.251.347.66 0 .913z" class="F G"/><path d="M169.077 34.206h-17.126a5.5 5.5 0 0 0-5.479 5.479v4.835 4.837a5.5 5.5 0 0 0 5.479 5.478h17.126c3.016 0 5.48-2.465 5.48-5.478V44.52v-4.835c.001-3.012-2.464-5.479-5.48-5.479z" class="B C D E"/><path d="M165.323 44.977l-7.535 5.479c-.158.116-.363.172-.574.182-.017.001-.033.01-.051.01-.424 0-.768-.343-.768-.765V39.161c0-.423.344-.764.763-.765h-.003.008l.008.003c.228.002.447.063.617.185l7.535 5.479c.346.251.346.661 0 .914z" class="F G"/><path d="M279.854 138.697h-17.128a5.5 5.5 0 0 0-5.479 5.479v4.835 4.837a5.5 5.5 0 0 0 5.479 5.478h17.128c3.015 0 5.479-2.465 5.479-5.478v-4.837-4.835a5.5 5.5 0 0 0-5.479-5.479z" class="B C D E"/><g class="F"><path d="M276.099 149.468l-7.535 5.479c-.158.116-.363.172-.574.182-.017.001-.033.01-.051.01-.425 0-.768-.343-.768-.765v-10.721c0-.423.343-.764.763-.765h-.003.008c.235.005.455.066.625.188l7.535 5.479c.347.251.347.66 0 .913z" class="G"/><g class="B C D E"><path d="M171.385 168.187H93.61V70.472c0-2.937 2.384-5.321 5.32-5.321h72.454 68.47a5.32 5.32 0 0 1 5.317 5.321v97.715h-73.786z"/><path d="M265.114 168.187c0 4.402-3.5 7.977-7.824 7.977H81.496c-4.325 0-7.827-3.574-7.827-7.977h191.445z"/><path d="M75.104 172.778c1.417 2.045 3.748 3.385 6.392 3.385H257.29c2.644 0 4.976-1.34 6.389-3.385H75.104zm24.125-10.96V71.52h140.327v90.299H99.229z"/></g></g><use xlink:href="#B" class="B C D E"/><use xlink:href="#B" y="5.501" class="B C D E"/><use xlink:href="#B" y="11.001" class="B C D E"/><path d="M210.346 109.498h21.242v1.428h-21.242z" class="B C D E"/><use xlink:href="#B" y="27.504" class="B C D E"/><use xlink:href="#B" y="33.005" class="B C D E"/><path d="M210.346 131.502h21.242v1.428h-21.242z" class="B C D E"/><use xlink:href="#B" y="49.507" class="B C D E"/><path d="M108.687 99.289h21.243v.636h-21.243zm0 4.709h21.243v1.427h-21.243zm0 5.5h21.243v1.428h-21.243zm0 11.003h21.243v1.427h-21.243zm0 5.501h21.243v1.427h-21.243zm0 5.5h21.243v1.428h-21.243zm0 11.002h21.243v1.427h-21.243z" class="B C D E"/><path d="M320.252 150.373l-15.758-.019.002-2.061 15.758.019zm-23.183 2.547h23.252v2.061h-23.252zM16.47 51.874l15.758.019-.002 2.061-15.758-.019zm-.065-4.619h23.252v2.061H16.405z" fill="#34525c"/><path d="M272.766 46.916h9.713v9.711h-9.713zM30.642 82.192h9.713v9.711h-9.713zm60.617 107.967h9.713v9.711h-9.713z" class="B C D E"/><path d="M195.751 24.496h1.289v3.869h-1.289zm1.946 4.942h3.869v1.29h-3.869zm-1.946 2.361h1.289v3.869h-1.289zm-4.526-2.361h3.87v1.29h-3.87zM66.347 105.34h1.29v3.869h-1.29zm1.945 4.941h3.87v1.29h-3.87zm-1.945 2.362h1.29v3.869h-1.29zm-4.526-2.362h3.869v1.29h-3.869zm182.706 77.994h1.29v3.869h-1.29zm1.947 4.942h3.869v1.29h-3.869zm-1.947 2.361h1.29v3.869h-1.29zm-4.526-2.361h3.87v1.29h-3.87zM214.263 50.876h20.719v2.061h-20.719zm-68.227-34.742h20.719v2.061h-20.719zm9.188 4.976h20.719v2.061h-20.719zM83.251 214.202h20.719v2.061H83.251zM24.501 21.471h16.982v2.061H24.501zM205.04 46.149h44.994v2.061H205.04zM33.801 198.26h28.444v2.061H33.801zm0 9.355h20.718v2.061H33.801zm-9.223-4.726h44.995v2.061H24.578z" fill="#34525c"/><g class="B C D E F"><path d="M227.536 210.939c0 3.396-2.777 6.176-6.174 6.176h-92.88c-3.396 0-6.174-2.779-6.174-6.176v-14.042c0-3.396 2.778-6.175 6.174-6.175h92.88c3.396 0 6.174 2.778 6.174 6.175v14.042z"/><path d="M148.349 190.723h-19.866c-3.396 0-6.174 2.778-6.174 6.175v14.042c0 3.396 2.778 6.176 6.174 6.176h19.866v-26.393z"/></g><path d="M155.141 201.043h62.345v5.751h-62.345z" class="B C D E"/><path d="M155.141 201.043h30.36v5.751h-30.36zm-11.682 2.878c0 4.486-3.64 8.128-8.131 8.128-4.485 0-8.131-3.642-8.131-8.128a8.14 8.14 0 0 1 8.131-8.133c4.491 0 8.131 3.642 8.131 8.133z" class="B C D E"/><path d="M132.157 207.855c0 .784.551 1.09 1.215.681l6.348-3.87c.666-.414.666-1.079 0-1.488l-6.348-3.874c-.664-.409-1.215-.102-1.215.681v7.87z" class="G"/><g class="C"><g class="D E"><circle cx="186.314" cy="203.919" r="4.409"/><path d="M52.337 24.811h79.025v67.13H52.337z" class="B F"/></g><path d="M52.337,21.731c0-1.65,1.35-3,3-3h73.025c1.65,0,3,1.35,3,3v6.157    c0,1.65-1.35,3-3,3H55.337c-1.65,0-3-1.35-3-3V21.731z" class="F"/></g><g class="B D E"><path fill="none" d="M52.337,21.731c0-1.65,1.35-3,3-3h73.025    c1.65,0,3,1.35,3,3v6.157c0,1.65-1.35,3-3,3H55.337c-1.65,0-3-1.35-3-3V21.731z"/><path d="M63.012 38.334h59.297v8.895H63.012zm38.35 40.068h20.946v5.645h-20.946zm-38.35-26.251h59.297v21.181H63.012z" class="C"/></g><path d="M65.812 54.701h45.017v16.08H65.812zm118.382 45.614l4.075 3.968-11.016 12.849-12.092-10.505-18.349 18.424v9.322l18.523-18.618 12.162 10.582 15.199-17.735 3.957 3.852 3.03-16.422z" class="G"/><path d="M146.186 139.398V88.989h-3.812v50.409 3.612.2h54.022v-3.812zm-63.659 1.081H18.454v41.798h42.565l11.849 8.927v-8.927h9.659z" class="B C D E"/><path d="M46.239 168.996h29.877v4.727H46.239z" class="G"/><g class="B C D E"><path d="M71.351 158.819h4.766v4.731h-4.766zm-46.487 10.177h16.619v4.727H24.864z"/><path d="M24.864 147.699h51.252v16.192H24.864z"/><g class="F"><path d="M220.362 21.968c0-2.75 2.25-5 5-5h75.207c2.75 0 5 2.25 5 5v11.371c0 2.75-2.25 5-5 5h-75.207c-2.75 0-5-2.25-5-5V21.968z"/><path d="M284.483 38.339h16.086c2.75 0 5-2.25 5-5V21.968c0-2.75-2.25-5-5-5h-16.086v21.371z"/></g></g><g class="G"><path d="M228.5 22.501h50.482v10.307H228.5z"/><path stroke="#84dbff" d="M299.114 31.112l-3.017-3.014c.814-1.43.609-3.285-.606-4.502-1.46-1.461-3.838-1.461-5.295 0-1.463 1.461-1.463 3.834 0 5.297 1.214 1.213 3.072 1.418 4.5.605l3.015 3.014c.387.391 1.017.391 1.403 0a.99.99 0 0 0 0-1.4h0zm-4.371-2.963c-1.047 1.045-2.752 1.045-3.805 0a2.7 2.7 0 0 1 0-3.809 2.7 2.7 0 0 1 3.805 0 2.7 2.7 0 0 1 0 3.809h0zm0 0" class="B"/></g><defs ><path id="B" d="M210.346 92.997h21.242v1.427h-21.242z"/></defs></svg>